<svg width="163" height="131" viewBox="0 0 163 131" fill="none" xmlns="http://www.w3.org/2000/svg">
<path opacity="0.2" fill-rule="evenodd" clip-rule="evenodd" d="M133.851 0.115861C133.434 0.213449 119.616 2.83743 117.7 3.18279C116.45 3.40817 101.273 6.27705 82.2562 9.88246L79.0137 10.4974L72.7494 9.56504C69.3042 9.05245 64.5878 8.35454 62.2685 8.01411C59.9494 7.67389 56.1773 7.11466 53.8861 6.77135C51.595 6.42805 48.8004 6.0151 47.6759 5.85341C46.5515 5.69193 43.442 5.23255 40.766 4.83254C38.0899 4.43274 35.5863 4.10546 35.2023 4.10546C34.8184 4.10546 33.9987 4.2955 33.3809 4.52786C31.9931 5.0497 30.5689 6.55132 30.1222 7.96378C29.9535 8.49712 29.4761 11.3835 29.0615 14.3779C28.6469 17.3723 28.2492 19.8847 28.1783 19.9611C28.1071 20.0376 22.6395 21.1244 16.0283 22.3762C9.4168 23.6282 3.69979 24.7818 3.32381 24.9395C2.36188 25.3435 1.00597 26.6292 0.508546 27.6091C-0.302298 29.2065 -0.225425 30.2565 1.33881 38.9289C2.13371 43.3358 3.29764 49.8074 3.9253 53.3103C5.14913 60.1406 7.25598 71.8875 9.54417 84.6411C12.5704 101.507 13.6644 107.609 14.9584 114.842C17.0757 126.677 17.145 127.025 17.5373 127.809C18.4287 129.591 20.1036 130.79 21.9824 130.993C22.6729 131.068 25.942 130.526 33.7734 129.041C48.8844 126.174 84.6663 119.414 87.1346 118.96C88.2591 118.753 91.4425 118.15 94.2089 117.62L99.2386 116.656L121.605 119.979C133.907 121.807 144.447 123.302 145.028 123.301C147.021 123.298 148.981 122.011 149.876 120.118C150.278 119.269 150.555 117.798 151.248 112.839C151.812 108.798 152.198 106.624 152.351 106.624C152.48 106.624 153.072 106.479 153.665 106.302C155.88 105.641 157.558 103.352 157.569 100.974C157.573 100.296 157.011 96.581 156.321 92.7179L155.066 85.6941L156.232 77.412C156.873 72.8568 157.99 64.9233 158.713 59.7819C159.436 54.6406 160.724 45.5341 161.575 39.5453C163.196 28.13 163.286 26.8691 162.581 25.4628C162.09 24.4857 160.892 23.2582 159.953 22.7712C159.388 22.4785 156.993 22.0442 151.366 21.214C147.074 20.581 143.495 20.0055 143.412 19.9354C143.236 19.7855 143.203 19.6174 141.613 10.7176C140.94 6.95297 140.245 3.59102 140.068 3.24669C138.891 0.959637 136.148 -0.421591 133.851 0.115861ZM130.974 15.3677C131.247 16.8548 131.431 18.1068 131.383 18.1499C131.335 18.1932 127.495 17.6644 122.849 16.9747C117.643 16.2018 114.545 15.6597 114.773 15.5615C115.248 15.3572 130.001 12.5551 130.273 12.6174C130.386 12.6433 130.701 13.8809 130.974 15.3677ZM50.1559 17.8738C55.5388 18.6666 61.1389 19.4958 62.6007 19.7164C64.0625 19.9371 66.8686 20.3546 68.8364 20.644C70.8042 20.9335 73.6563 21.3561 75.1743 21.5831C76.6924 21.81 79.1304 22.1726 80.5922 22.3889C88.5392 23.5647 90.6446 23.8776 93.0636 24.2429C95.4174 24.5981 111.894 27.0355 129.967 29.7018C146.979 32.2116 150.823 32.802 150.945 32.9243C151.017 32.9974 150.102 39.9716 148.911 48.4227C147.72 56.8736 145.911 69.7513 144.892 77.0396C143.873 84.3278 142.771 92.1862 142.444 94.5027C142.116 96.8191 141.465 101.442 140.998 104.775C140.53 108.108 140.114 110.871 140.074 110.913C140.034 110.956 139.284 110.883 138.408 110.752C137.532 110.62 133.734 110.058 129.967 109.503C126.2 108.948 120.266 108.072 116.78 107.555C113.294 107.039 108.28 106.298 105.637 105.908C102.995 105.518 98.0726 104.791 94.6992 104.292C91.3258 103.793 75.2714 101.418 59.0229 99.0149C42.7743 96.612 29.4217 94.5904 29.3506 94.5228C29.2794 94.4552 29.4812 92.5509 29.7989 90.291C30.1168 88.031 31.0285 81.5594 31.8248 75.9096C32.6213 70.2598 33.8677 61.4074 34.5943 56.2377C35.3211 51.0678 36.5171 42.5623 37.2523 37.3365C37.9873 32.1105 38.9088 25.5234 39.2999 22.6985C40.0118 17.557 40.1925 16.4323 40.3076 16.4323C40.3413 16.4323 44.7732 17.0809 50.1559 17.8738ZM26.4178 33.125C26.3501 33.6054 25.4734 39.8689 24.4691 47.0441C20.6441 74.3794 20.0807 78.2564 19.9539 78.1124C19.8821 78.0308 19.4379 75.7915 18.9664 73.136C18.1351 68.4539 15.9381 56.1985 13.4105 42.1417C12.7326 38.372 12.2182 35.1822 12.2674 35.0531C12.3165 34.9243 13.5416 34.6049 14.9895 34.3431C16.4374 34.0816 19.416 33.5129 21.6087 33.0796C26.8498 32.0437 26.5703 32.0413 26.4178 33.125ZM62.1918 35.3063C58.5506 36.3575 55.5734 39.4185 54.6425 43.0675C54.0216 45.5018 54.3191 48.9312 55.3225 50.9078C56.1228 52.484 57.6028 54.1987 58.9738 55.138C66.2542 60.1258 75.8118 54.967 75.8441 46.0319C75.8625 40.945 72.5061 36.4944 67.7034 35.2372C66.1448 34.8292 63.7391 34.8594 62.1918 35.3063ZM91.8048 63.5455C85.2684 71.2498 79.7456 77.7705 79.5322 78.0364L79.1441 78.5196L77.3286 77.8757C74.8092 76.982 71.4969 76.1222 68.1208 75.4856C64.6094 74.8234 58.5759 74.5785 55.4652 74.9719C48.551 75.8465 43.315 78.9336 39.985 84.0992C38.7885 85.9552 37.8113 88.0481 38.0358 88.2737C38.1041 88.3425 39.6113 88.6137 41.3846 88.8763C43.1582 89.139 45.8512 89.5384 47.3693 89.7638C51.6073 90.3929 57.0015 91.1927 59.9429 91.6278C61.4047 91.8442 63.8428 92.2078 65.3608 92.4361C68.9464 92.9752 121.857 100.798 123.731 101.066C124.518 101.178 127.042 101.549 129.339 101.89C131.637 102.23 133.563 102.463 133.619 102.407C133.674 102.35 133.418 100.618 133.049 98.5576C132.68 96.4969 131.523 90.0496 130.478 84.2302C129.433 78.4109 128.227 71.6837 127.799 69.2808C127.371 66.8781 126.954 64.9366 126.874 64.9664C126.793 64.9964 124.87 67.0086 122.601 69.438C120.332 71.8674 118.078 74.2633 117.591 74.7622L116.707 75.6692L110.233 62.6407C106.673 55.4751 103.744 49.5956 103.724 49.575C103.705 49.5547 98.3413 55.8414 91.8048 63.5455ZM33.3645 106.933C36.8504 107.449 40.6225 108.003 41.7469 108.166C42.8714 108.329 45.9995 108.791 48.6982 109.194C51.3969 109.597 55.813 110.249 58.5117 110.643C61.2105 111.038 63.5105 111.394 63.623 111.434C63.9985 111.568 63.2507 111.734 57.0806 112.887C50.1185 114.187 40.8702 115.93 34.6934 117.105C32.3883 117.543 29.9042 118.004 29.1733 118.129C28.4424 118.254 27.6941 118.4 27.5103 118.454C27.2879 118.52 27.1376 118.396 27.0603 118.084C26.9078 117.468 24.8799 106.084 24.8799 105.844C24.8799 105.736 25.3282 105.729 25.9532 105.828C26.5435 105.92 29.8787 106.418 33.3645 106.933Z" fill="white"/>
</svg>
