<svg width="302" height="302" viewBox="0 0 302 302" fill="none" xmlns="http://www.w3.org/2000/svg">
<path fill-rule="evenodd" clip-rule="evenodd" d="M169.647 1.49781C168.895 2.36568 167.666 4.20848 166.917 5.59285C163.003 12.8244 159.008 20.2621 157.272 23.5476C154.848 28.135 153.939 29.3694 152.565 29.9439C150.853 30.6591 141.122 30.69 139.758 29.9845C138.463 29.3147 137.839 28.5159 132.367 20.5272C120.104 2.62544 120.062 2.57208 118.017 2.57309C116.564 2.57376 90.6663 11.1689 89.1772 12.1448C87.5474 13.2131 87.5387 13.6436 88.8168 29.9875L90.007 45.2058L89.352 46.6872C88.9503 47.5953 88.1756 48.534 87.3491 49.1143C79.1329 54.882 78.8323 55.0571 76.8955 55.1971C75.1362 55.3243 74.4833 55.1081 66.1436 51.637C50.1189 44.9665 46.4175 43.5161 45.4209 43.5161C44.8797 43.5161 44.0375 43.8305 43.5489 44.2148C43.0603 44.5991 40.1988 47.9595 37.1903 51.682C24.2932 67.6389 24.6959 67.0717 25.0224 68.8108C25.222 69.873 26.3032 71.3708 36.9239 85.2987C40.1612 89.5441 43.0801 93.5405 43.4103 94.1791C44.1804 95.6685 44.171 97.1371 43.3784 99.1387C40.9407 105.296 38.5355 110.544 37.799 111.312C36.6836 112.477 35.981 112.668 26.7303 114.327C4.50102 118.313 4.5735 118.296 3.61249 119.769C3.33667 120.191 2.95616 121.519 2.76658 122.719C2.05992 127.195 0.278839 143.478 0.141936 146.714L0 150.07L15.2107 155.733C30.8867 161.568 32.2571 162.225 32.7269 164.122C32.8242 164.515 33.5208 168.198 34.2751 172.307C35.429 178.591 35.5904 179.986 35.2918 181.094C34.9166 182.488 33.2634 184.138 18.5094 197.85C15.0952 201.023 12.0307 204.106 11.6995 204.7C11.3257 205.37 11.1656 206.143 11.2781 206.736C11.5861 208.362 23.1832 230.538 24.2483 231.538C24.9194 232.168 25.5901 232.461 26.3629 232.461C27.395 232.461 33.2087 231.22 49.8468 227.446C56.5037 225.936 57.354 225.856 58.9065 226.593C60.2635 227.237 70.7409 238.137 71.5741 239.771C71.9167 240.443 72.1968 241.41 72.1968 241.921C72.1968 242.431 70.5359 249.309 68.5058 257.204C66.4758 265.099 64.8148 272.069 64.8148 272.693C64.8148 274.4 66.1161 275.394 74.5309 280.117C78.642 282.424 83.687 285.254 85.7419 286.407C89.6547 288.601 90.4398 288.808 91.927 288.037C92.4253 287.778 97.6803 282.669 103.605 276.683C113.106 267.084 114.55 265.753 115.852 265.393C117.209 265.018 117.95 265.123 125.045 266.697C129.29 267.638 133.289 268.664 133.933 268.977C134.577 269.289 135.449 270.065 135.872 270.699C136.295 271.334 138.684 278.069 141.182 285.667C144.804 296.684 145.934 299.734 146.762 300.74L147.801 302L154.207 301.833C159.663 301.691 170.257 300.772 174.634 300.061C176.298 299.79 177.797 298.494 178.225 296.956C178.414 296.277 179.168 292.853 179.9 289.346C182.917 274.901 184.304 268.483 184.621 267.503C185.25 265.559 186.492 264.828 194 261.982C202.144 258.895 203.069 258.778 205.412 260.53C206.119 261.058 211.615 265.455 217.626 270.3C227.354 278.141 228.688 279.11 229.755 279.11C230.415 279.11 231.284 278.936 231.687 278.723C232.951 278.056 252.502 263.106 253.56 261.997C255.328 260.145 255.285 259.991 247.294 239.509C243.452 229.663 243.233 228.766 244.138 226.6C244.671 225.323 250.315 217.481 251.898 215.818C253.669 213.956 254.078 213.945 267.36 215.383C283.611 217.143 285.996 217.284 287.119 216.548C288.22 215.826 288.284 215.672 293.61 201.072C296.198 193.975 298.02 188.483 298.02 187.777C298.02 187.073 297.735 186.212 297.334 185.702C296.957 185.222 292.918 182.077 288.358 178.712C283.798 175.348 278.391 171.354 276.342 169.838C270.512 165.523 270.367 165.215 270.872 158.161C271.324 151.834 271.402 151.426 272.39 150.252C272.985 149.544 277.082 147.302 286.021 142.792C293.05 139.245 299.531 135.766 300.423 135.061C302.5 133.419 302.505 133.13 300.558 124.852C299.739 121.371 298.378 115.352 297.533 111.476C296.689 107.6 295.779 103.944 295.511 103.353C294.613 101.367 294.333 101.318 277.711 100.251C264.221 99.3847 262.249 99.1877 261.007 98.5829C259.454 97.8261 259.23 97.5315 256.523 92.682C255.05 90.0435 254.615 88.9249 254.488 87.4499C254.294 85.2081 254.128 85.5672 259.591 76.4052C266.741 64.4144 269.052 60.4936 269.618 59.3901C270.387 57.8913 270.311 56.2549 269.414 55.043C268.263 53.4868 249.328 34.3078 248.268 33.6251C247.646 33.2241 246.975 33.0858 246.236 33.2056C245.629 33.3043 239.781 36.365 233.24 40.0077C217.815 48.5978 218.277 48.3669 216.482 48.3753C215.247 48.381 214.298 48.0048 211.281 46.314C206.736 43.7668 205.789 43.0331 205.187 41.5924C204.838 40.7581 204.554 36.3432 204.104 24.7676C203.431 7.49371 203.467 7.71756 201.276 6.94365C199.135 6.18653 173.992 0.143988 172.525 0.0335745C171.09 -0.0744899 170.948 -0.00233513 169.647 1.49781ZM161.119 62.8029C175.414 64.4846 188.272 69.1864 200.118 77.0637C226.824 94.8232 242.038 126.238 239.295 157.957C237.028 184.165 223.73 207.47 202.211 222.946C185.761 234.776 163.754 240.707 143.333 238.813C101.957 234.976 68.9323 203.122 63.6783 161.984C61.156 142.233 65.3567 121.963 75.4396 105.236C89.7798 81.4436 114.144 65.8659 141.991 62.6844C146.181 62.2058 156.589 62.2703 161.119 62.8029ZM128.658 86.3196C124.524 87.4328 124.244 87.6728 107.004 104.878L90.6398 121.208L88.9936 119.362L87.3471 117.517L84.7215 120.032C83.2773 121.416 80.6224 123.981 78.8219 125.733L75.5483 128.919L85.0271 138.404C90.2409 143.621 94.66 147.889 94.8479 147.889C95.0358 147.889 97.6756 145.399 100.714 142.356L106.238 136.823L104.656 135.216L103.074 133.609L119.248 117.729C130.338 106.842 135.909 101.603 136.969 101.066C139.708 99.678 142.506 99.1239 146.688 99.1414C148.81 99.1501 151.566 99.381 152.812 99.6542C154.057 99.9277 155.077 100.039 155.077 99.9025C155.077 98.9846 148.68 92.3528 145.849 90.3361C140.199 86.3106 134.036 84.8708 128.658 86.3196ZM102.249 102.561C94.7865 110.032 95.2593 109.13 97.4471 111.725L98.2228 112.645L105.207 105.852L112.191 99.0585L110.558 97.4684L108.924 95.8786L102.249 102.561ZM187.793 96.1045C181.902 96.8858 176.534 100.551 174.241 105.354C172.641 108.709 172.112 111.717 172.245 116.702L172.357 120.922L162.993 129.791C157.842 134.669 153.442 138.66 153.215 138.66C152.988 138.66 147.614 133.675 141.273 127.584C134.931 121.492 128.823 115.64 127.699 114.579L125.655 112.65L118.807 119.208C115.041 122.815 111.959 125.899 111.959 126.062C111.959 126.356 118.808 133.731 131.872 147.504L138.699 154.7L129.861 163.544L121.024 172.388L116.491 172.393C113.615 172.396 111.164 172.585 109.783 172.911C102.979 174.515 98.2222 179.084 96.5276 185.644C95.8686 188.194 95.5193 192.934 95.8351 195.039L96.0777 196.656L103.182 189.556C107.09 185.651 110.438 182.456 110.623 182.456C110.807 182.456 114.279 185.783 118.338 189.849L125.717 197.242L118.194 204.532C109.519 212.938 109.662 212.22 116.657 212.28C123.103 212.336 127.109 211.027 130.444 207.777C134.349 203.97 136.131 197.501 135.288 190.188L134.922 187.014L143.739 178.19C148.589 173.337 152.645 169.404 152.752 169.451C152.86 169.497 160.788 177.688 170.37 187.652C179.953 197.616 189.227 207.255 190.98 209.073L194.168 212.376L202.883 203.988C207.676 199.375 211.644 195.462 211.7 195.294C211.756 195.125 206.25 189.638 199.464 183.1C175.813 160.314 169.17 153.853 169.17 153.638C169.17 153.519 173.376 149.217 178.517 144.077L187.864 134.733L189.771 135.129C192.207 135.635 197.711 135.65 199.833 135.158C205.783 133.776 210.08 129.048 211.781 122.009C212.534 118.897 213.082 111.192 212.573 110.877C212.399 110.77 208.809 114.026 204.594 118.114L196.932 125.545L189.776 118.175C185.841 114.121 182.614 110.655 182.606 110.472C182.598 110.289 185.799 106.929 189.719 103.005L196.847 95.8702L192.823 95.9206C190.61 95.9481 188.346 96.031 187.793 96.1045Z" fill="#191E3E"/>
</svg>
