<svg width="157" height="183" viewBox="0 0 157 183" fill="none" xmlns="http://www.w3.org/2000/svg">
<path fill-rule="evenodd" clip-rule="evenodd" d="M77.002 0.269016C76.1704 0.568378 76.2428 0.52225 73.2082 2.69492C70.1105 4.91277 64.5295 8.49597 60.5896 10.7967C42.3279 21.4604 23.5532 28.9634 5.49448 32.8145C2.63013 33.4254 1.71477 33.9485 0.860573 35.4625C0.0640098 36.8743 -0.0837019 39.2756 0.0373399 48.8529C0.137493 56.7704 0.319522 59.6839 1.10564 65.9407C4.5586 93.4256 15.5437 119.355 33.6836 142.838C44.7117 157.115 60.1644 171.772 73.8315 180.92C76.2944 182.568 76.7089 182.78 77.7906 182.942C79.2957 183.169 80.3463 182.774 83.1069 180.944C94.2433 173.563 107.968 161.152 117.89 149.49C140.181 123.291 153.199 93.6174 156.345 61.8321C156.898 56.2416 157.06 51.8234 156.981 44.4034L156.904 37.0482L156.304 35.8285C155.749 34.6989 155.106 34.0144 154.097 33.4803C153.879 33.3643 152.536 33.0112 151.113 32.6956C142.262 30.731 134.64 28.3913 125.866 24.9454C111.094 19.1434 95.6376 10.8629 82.1751 1.53911C79.9858 0.0226906 78.6181 -0.313088 77.002 0.269016ZM81.9823 13.1614C88.8019 17.6597 95.5789 21.5501 104.139 25.8803C118.607 33.1998 131.972 38.1653 146.825 41.7396L147.361 41.8686L147.261 48.9091C147.16 56.0135 146.906 59.9172 146.191 65.3804C142.815 91.1839 132.667 114.89 115.532 137.005C105.779 149.591 92.7714 162.218 80.701 170.816L78.4917 172.39L75.7418 170.404C62.4153 160.78 49.1645 147.547 38.8325 133.545C23.3525 112.565 13.8883 89.5227 10.7979 65.287C10.0605 59.5032 9.83949 56.1293 9.73132 49.0029L9.62296 41.8696L10.1612 41.7456C18.8637 39.7413 28.6937 36.5966 37.6495 32.952C50.4428 27.7459 65.6873 19.6344 75.9763 12.5589C77.3098 11.6418 78.4178 10.8819 78.4387 10.8703C78.4594 10.8586 80.054 11.8896 81.9823 13.1614ZM78.2257 23.5298C78.0422 23.8269 71.0356 28.4746 68.1431 30.218C53.5725 38.999 38.2103 45.3689 23.6716 48.6578C22.1024 49.013 20.7655 49.3562 20.7012 49.4207C20.4718 49.6507 20.58 63.5506 20.8312 66.1274C21.8042 76.1029 23.4331 83.937 26.3648 92.7395C28.352 98.7062 29.8164 102.245 32.7024 108.053C37.4988 117.706 43.2679 126.386 50.5338 134.878C58.0164 143.625 67.8293 152.533 76.4946 158.445C77.4976 159.13 78.3979 159.69 78.4948 159.69C79.0282 159.69 85.7044 154.785 89.5544 151.565C106.554 137.346 119.89 119.516 127.828 100.396C129.41 96.5862 131.958 88.9417 132.933 85.0827C134.439 79.1229 135.543 72.6013 136.159 66.0341C136.409 63.362 136.514 49.6485 136.286 49.4199C136.222 49.3551 134.736 48.9698 132.984 48.5638C116.123 44.6555 96.9443 35.9738 80.77 24.9277C79.5087 24.0662 78.4435 23.3614 78.4031 23.3614C78.3626 23.3614 78.2828 23.4372 78.2257 23.5298Z" fill="#D2D62A"/>
</svg>
